# xmcd CD database file
#
# Track frame offsets:
#	150
#	17144
#	43028
#	53878
#	71054
#	79799
#	84292
#	105293
#	112857
#	130488
#	152018
#	165960
#
# Disc length: 2443 seconds
#
# Revision: 0
# Processed by: cddbd v1.5.1PL0 Copyright (c) Steve Scherf et al.
# Submitted via: CDex 1.51
#
DISCID=8909890c
DTITLE=Carmen Baliero - Dame Más
DYEAR=2005
DGENRE=Blues
TTITLE0=Hace falta Un Bolero
TTITLE1=Sutil
TTITLE2=Esos Ojos II
TTITLE3=Por Una Mirada
TTITLE4=Tu No Sospechas
TTITLE5=Tu Pálida Voz
TTITLE6=Dame Más
TTITLE7=No Puedo Ser Feliz
TTITLE8=Esos Ojos I
TTITLE9=Hace Tiempo
TTITLE10=Yo Te Dejo
TTITLE11=Mi Dicha Lejana
EXTD=YEAR: 2005
EXTT0=
EXTT1=
EXTT2=
EXTT3=
EXTT4=
EXTT5=
EXTT6=
EXTT7=
EXTT8=
EXTT9=
EXTT10=
EXTT11=
PLAYORDER=
